<mxfile host="app.diagrams.net" agent="Mozilla/5.0 (Macintosh; Intel Mac OS X 10_15_7) AppleWebKit/537.36 (KHTML, like Gecko) Chrome/132.0.0.0 Safari/537.36" version="26.0.10">
  <diagram id="R2lEEEUBdFMjLlhIrx00" name="Page-1">
    <mxGraphModel dx="909" dy="576" grid="1" gridSize="10" guides="1" tooltips="1" connect="1" arrows="1" fold="1" page="1" pageScale="1" pageWidth="850" pageHeight="1100" math="0" shadow="0" extFonts="Permanent Marker^https://fonts.googleapis.com/css?family=Permanent+Marker">
      <root>
        <mxCell id="0" />
        <mxCell id="1" parent="0" />
        <mxCell id="uFHn_YRlUSNiN2GhpHnX-34" value="" style="group" vertex="1" connectable="0" parent="1">
          <mxGeometry x="750" y="30" width="410" height="260" as="geometry" />
        </mxCell>
        <mxCell id="uFHn_YRlUSNiN2GhpHnX-24" value="Course" style="rounded=0;whiteSpace=wrap;html=1;" vertex="1" parent="uFHn_YRlUSNiN2GhpHnX-34">
          <mxGeometry y="110" width="120" height="60" as="geometry" />
        </mxCell>
        <mxCell id="uFHn_YRlUSNiN2GhpHnX-33" value="" style="group" vertex="1" connectable="0" parent="uFHn_YRlUSNiN2GhpHnX-34">
          <mxGeometry x="100" width="310" height="260" as="geometry" />
        </mxCell>
        <mxCell id="uFHn_YRlUSNiN2GhpHnX-22" value="Department" style="rounded=0;whiteSpace=wrap;html=1;" vertex="1" parent="uFHn_YRlUSNiN2GhpHnX-33">
          <mxGeometry x="50" width="120" height="60" as="geometry" />
        </mxCell>
        <mxCell id="uFHn_YRlUSNiN2GhpHnX-23" value="&lt;span class=&quot;markedContent&quot; id=&quot;page27R_mcid1&quot; style=&quot;padding: 0px; margin: 0px; color: transparent; position: absolute; white-space: pre; cursor: text; transform-origin: 0% 0%; top: 0px; height: 0px; font-family: Arial; font-size: 16px; font-style: normal; font-variant-ligatures: normal; font-variant-caps: normal; font-weight: 400; letter-spacing: normal; orphans: 2; text-align: start; text-indent: 0px; text-transform: none; widows: 2; word-spacing: 0px; -webkit-text-stroke-width: 0px; background-color: rgb(255, 255, 255); text-decoration-thickness: initial; text-decoration-style: initial; text-decoration-color: initial;&quot;&gt;&lt;span role=&quot;presentation&quot; dir=&quot;ltr&quot; style=&quot;padding: 0px; margin: 0px; color: transparent; position: absolute; white-space: pre; cursor: text; transform-origin: 0% 0%; left: 180.033px; top: 124.405px; font-size: 23.4px; font-family: sans-serif; transform: scaleX(0.857994);&quot;&gt;ABC College&lt;/span&gt;&lt;/span&gt;&lt;span class=&quot;markedContent&quot; id=&quot;page27R_mcid2&quot; style=&quot;padding: 0px; margin: 0px; color: transparent; position: absolute; white-space: pre; cursor: text; transform-origin: 0% 0%; top: 0px; height: 0px; font-family: Arial; font-size: 16px; font-style: normal; font-variant-ligatures: normal; font-variant-caps: normal; font-weight: 400; letter-spacing: normal; orphans: 2; text-align: start; text-indent: 0px; text-transform: none; widows: 2; word-spacing: 0px; -webkit-text-stroke-width: 0px; background-color: rgb(255, 255, 255); text-decoration-thickness: initial; text-decoration-style: initial; text-decoration-color: initial;&quot;&gt;&lt;span role=&quot;presentation&quot; dir=&quot;ltr&quot; style=&quot;padding: 0px; margin: 0px; color: transparent; position: absolute; white-space: pre; cursor: text; transform-origin: 0% 0%; left: 298.086px; top: 124.405px; font-size: 23.4px; font-family: sans-serif;&quot;&gt; &lt;/span&gt;&lt;span role=&quot;presentation&quot; dir=&quot;ltr&quot; style=&quot;padding: 0px; margin: 0px; color: transparent; position: absolute; white-space: pre; cursor: text; transform-origin: 0% 0%; left: 307.433px; top: 124.405px; font-size: 23.4px; font-family: sans-serif; transform: scaleX(0.858643);&quot;&gt;has&lt;/span&gt;&lt;/span&gt;&lt;span class=&quot;markedContent&quot; id=&quot;page27R_mcid3&quot; style=&quot;padding: 0px; margin: 0px; color: transparent; position: absolute; white-space: pre; cursor: text; transform-origin: 0% 0%; top: 0px; height: 0px; font-family: Arial; font-size: 16px; font-style: normal; font-variant-ligatures: normal; font-variant-caps: normal; font-weight: 400; letter-spacing: normal; orphans: 2; text-align: start; text-indent: 0px; text-transform: none; widows: 2; word-spacing: 0px; -webkit-text-stroke-width: 0px; background-color: rgb(255, 255, 255); text-decoration-thickness: initial; text-decoration-style: initial; text-decoration-color: initial;&quot;&gt;&lt;span role=&quot;presentation&quot; dir=&quot;ltr&quot; style=&quot;padding: 0px; margin: 0px; color: transparent; position: absolute; white-space: pre; cursor: text; transform-origin: 0% 0%; left: 339.983px; top: 124.405px; font-size: 23.4px; font-family: sans-serif;&quot;&gt; &lt;/span&gt;&lt;span role=&quot;presentation&quot; dir=&quot;ltr&quot; style=&quot;padding: 0px; margin: 0px; color: transparent; position: absolute; white-space: pre; cursor: text; transform-origin: 0% 0%; left: 349.483px; top: 124.405px; font-size: 23.4px; font-family: sans-serif; transform: scaleX(0.912123);&quot;&gt;many departments&lt;/span&gt;&lt;/span&gt;&lt;span class=&quot;markedContent&quot; id=&quot;page27R_mcid4&quot; style=&quot;padding: 0px; margin: 0px; color: transparent; position: absolute; white-space: pre; cursor: text; transform-origin: 0% 0%; top: 0px; height: 0px; font-family: Arial; font-size: 16px; font-style: normal; font-variant-ligatures: normal; font-variant-caps: normal; font-weight: 400; letter-spacing: normal; orphans: 2; text-align: start; text-indent: 0px; text-transform: none; widows: 2; word-spacing: 0px; -webkit-text-stroke-width: 0px; background-color: rgb(255, 255, 255); text-decoration-thickness: initial; text-decoration-style: initial; text-decoration-color: initial;&quot;&gt;&lt;/span&gt;&lt;span class=&quot;markedContent&quot; id=&quot;page27R_mcid5&quot; style=&quot;padding: 0px; margin: 0px; color: transparent; position: absolute; white-space: pre; cursor: text; transform-origin: 0% 0%; top: 0px; height: 0px; font-family: Arial; font-size: 16px; font-style: normal; font-variant-ligatures: normal; font-variant-caps: normal; font-weight: 400; letter-spacing: normal; orphans: 2; text-align: start; text-indent: 0px; text-transform: none; widows: 2; word-spacing: 0px; -webkit-text-stroke-width: 0px; background-color: rgb(255, 255, 255); text-decoration-thickness: initial; text-decoration-style: initial; text-decoration-color: initial;&quot;&gt;&lt;span role=&quot;presentation&quot; dir=&quot;ltr&quot; style=&quot;padding: 0px; margin: 0px; color: transparent; position: absolute; white-space: pre; cursor: text; transform-origin: 0% 0%; left: 533.829px; top: 124.405px; font-size: 23.4px; font-family: sans-serif;&quot;&gt; &lt;/span&gt;&lt;span role=&quot;presentation&quot; dir=&quot;ltr&quot; style=&quot;padding: 0px; margin: 0px; color: transparent; position: absolute; white-space: pre; cursor: text; transform-origin: 0% 0%; left: 543.317px; top: 124.405px; font-size: 23.4px; font-family: sans-serif; transform: scaleX(0.914503);&quot;&gt;and each department offer courses&lt;/span&gt;&lt;/span&gt;&lt;span class=&quot;markedContent&quot; id=&quot;page27R_mcid6&quot; style=&quot;padding: 0px; margin: 0px; color: transparent; position: absolute; white-space: pre; cursor: text; transform-origin: 0% 0%; top: 0px; height: 0px; font-family: Arial; font-size: 16px; font-style: normal; font-variant-ligatures: normal; font-variant-caps: normal; font-weight: 400; letter-spacing: normal; orphans: 2; text-align: start; text-indent: 0px; text-transform: none; widows: 2; word-spacing: 0px; -webkit-text-stroke-width: 0px; background-color: rgb(255, 255, 255); text-decoration-thickness: initial; text-decoration-style: initial; text-decoration-color: initial;&quot;&gt;&lt;span role=&quot;presentation&quot; dir=&quot;ltr&quot; style=&quot;padding: 0px; margin: 0px; color: transparent; position: absolute; white-space: pre; cursor: text; transform-origin: 0% 0%; left: 894.367px; top: 124.405px; font-size: 23.4px; font-family: sans-serif;&quot;&gt;.&lt;/span&gt;&lt;/span&gt;&lt;span class=&quot;markedContent&quot; id=&quot;page27R_mcid7&quot; style=&quot;padding: 0px; margin: 0px; color: transparent; position: absolute; white-space: pre; cursor: text; transform-origin: 0% 0%; top: 0px; height: 0px; font-family: Arial; font-size: 16px; font-style: normal; font-variant-ligatures: normal; font-variant-caps: normal; font-weight: 400; letter-spacing: normal; orphans: 2; text-align: start; text-indent: 0px; text-transform: none; widows: 2; word-spacing: 0px; -webkit-text-stroke-width: 0px; background-color: rgb(255, 255, 255); text-decoration-thickness: initial; text-decoration-style: initial; text-decoration-color: initial;&quot;&gt;&lt;br role=&quot;presentation&quot; style=&quot;padding: 0px; margin: 0px; color: transparent; position: absolute; white-space: pre; cursor: text; transform-origin: 0% 0%;&quot;&gt;&lt;span role=&quot;presentation&quot; dir=&quot;ltr&quot; style=&quot;padding: 0px; margin: 0px; color: transparent; position: absolute; white-space: pre; cursor: text; transform-origin: 0% 0%; left: 180.033px; top: 157.205px; font-size: 23.4px; font-family: sans-serif;&quot;&gt;S&lt;/span&gt;&lt;/span&gt;&lt;span class=&quot;markedContent&quot; id=&quot;page27R_mcid8&quot; style=&quot;padding: 0px; margin: 0px; color: transparent; position: absolute; white-space: pre; cursor: text; transform-origin: 0% 0%; top: 0px; height: 0px; font-family: Arial; font-size: 16px; font-style: normal; font-variant-ligatures: normal; font-variant-caps: normal; font-weight: 400; letter-spacing: normal; orphans: 2; text-align: start; text-indent: 0px; text-transform: none; widows: 2; word-spacing: 0px; -webkit-text-stroke-width: 0px; background-color: rgb(255, 255, 255); text-decoration-thickness: initial; text-decoration-style: initial; text-decoration-color: initial;&quot;&gt;&lt;span role=&quot;presentation&quot; dir=&quot;ltr&quot; style=&quot;padding: 0px; margin: 0px; color: transparent; position: absolute; white-space: pre; cursor: text; transform-origin: 0% 0%; left: 190.833px; top: 157.205px; font-size: 23.4px; font-family: sans-serif; transform: scaleX(0.908644);&quot;&gt;ome popular courses have many course sections.&lt;/span&gt;&lt;/span&gt;&lt;span class=&quot;markedContent&quot; id=&quot;page27R_mcid9&quot; style=&quot;padding: 0px; margin: 0px; color: transparent; position: absolute; white-space: pre; cursor: text; transform-origin: 0% 0%; top: 0px; height: 0px; font-family: Arial; font-size: 16px; font-style: normal; font-variant-ligatures: normal; font-variant-caps: normal; font-weight: 400; letter-spacing: normal; orphans: 2; text-align: start; text-indent: 0px; text-transform: none; widows: 2; word-spacing: 0px; -webkit-text-stroke-width: 0px; background-color: rgb(255, 255, 255); text-decoration-thickness: initial; text-decoration-style: initial; text-decoration-color: initial;&quot;&gt;&lt;span role=&quot;presentation&quot; dir=&quot;ltr&quot; style=&quot;padding: 0px; margin: 0px; color: transparent; position: absolute; white-space: pre; cursor: text; transform-origin: 0% 0%; left: 679.121px; top: 157.205px; font-size: 23.4px; font-family: sans-serif;&quot;&gt; &lt;/span&gt;&lt;span role=&quot;presentation&quot; dir=&quot;ltr&quot; style=&quot;padding: 0px; margin: 0px; color: transparent; position: absolute; white-space: pre; cursor: text; transform-origin: 0% 0%; left: 688.517px; top: 157.205px; font-size: 23.4px; font-family: sans-serif; transform: scaleX(0.830797);&quot;&gt;Each&lt;/span&gt;&lt;/span&gt;&lt;span class=&quot;markedContent&quot; id=&quot;page27R_mcid10&quot; style=&quot;padding: 0px; margin: 0px; color: transparent; position: absolute; white-space: pre; cursor: text; transform-origin: 0% 0%; top: 0px; height: 0px; font-family: Arial; font-size: 16px; font-style: normal; font-variant-ligatures: normal; font-variant-caps: normal; font-weight: 400; letter-spacing: normal; orphans: 2; text-align: start; text-indent: 0px; text-transform: none; widows: 2; word-spacing: 0px; -webkit-text-stroke-width: 0px; background-color: rgb(255, 255, 255); text-decoration-thickness: initial; text-decoration-style: initial; text-decoration-color: initial;&quot;&gt;&lt;span role=&quot;presentation&quot; dir=&quot;ltr&quot; style=&quot;padding: 0px; margin: 0px; color: transparent; position: absolute; white-space: pre; cursor: text; transform-origin: 0% 0%; left: 733.211px; top: 157.205px; font-size: 23.4px; font-family: sans-serif;&quot;&gt; &lt;/span&gt;&lt;span role=&quot;presentation&quot; dir=&quot;ltr&quot; style=&quot;padding: 0px; margin: 0px; color: transparent; position: absolute; white-space: pre; cursor: text; transform-origin: 0% 0%; left: 742.317px; top: 157.205px; font-size: 23.4px; font-family: sans-serif; transform: scaleX(0.907171);&quot;&gt;Faculty member&lt;/span&gt;&lt;/span&gt;&lt;span class=&quot;markedContent&quot; id=&quot;page27R_mcid11&quot; style=&quot;padding: 0px; margin: 0px; color: transparent; position: absolute; white-space: pre; cursor: text; transform-origin: 0% 0%; top: 0px; height: 0px; font-family: Arial; font-size: 16px; font-style: normal; font-variant-ligatures: normal; font-variant-caps: normal; font-weight: 400; letter-spacing: normal; orphans: 2; text-align: start; text-indent: 0px; text-transform: none; widows: 2; word-spacing: 0px; -webkit-text-stroke-width: 0px; background-color: rgb(255, 255, 255); text-decoration-thickness: initial; text-decoration-style: initial; text-decoration-color: initial;&quot;&gt;&lt;/span&gt;&lt;span class=&quot;markedContent&quot; id=&quot;page27R_mcid12&quot; style=&quot;padding: 0px; margin: 0px; color: transparent; position: absolute; white-space: pre; cursor: text; transform-origin: 0% 0%; top: 0px; height: 0px; font-family: Arial; font-size: 16px; font-style: normal; font-variant-ligatures: normal; font-variant-caps: normal; font-weight: 400; letter-spacing: normal; orphans: 2; text-align: start; text-indent: 0px; text-transform: none; widows: 2; word-spacing: 0px; -webkit-text-stroke-width: 0px; background-color: rgb(255, 255, 255); text-decoration-thickness: initial; text-decoration-style: initial; text-decoration-color: initial;&quot;&gt;&lt;br role=&quot;presentation&quot; style=&quot;padding: 0px; margin: 0px; color: transparent; position: absolute; white-space: pre; cursor: text; transform-origin: 0% 0%;&quot;&gt;&lt;span role=&quot;presentation&quot; dir=&quot;ltr&quot; style=&quot;padding: 0px; margin: 0px; color: transparent; position: absolute; white-space: pre; cursor: text; transform-origin: 0% 0%; left: 180.033px; top: 190.005px; font-size: 23.4px; font-family: sans-serif; transform: scaleX(0.903203);&quot;&gt;belongs to a particular department and&lt;/span&gt;&lt;/span&gt;&lt;span class=&quot;markedContent&quot; id=&quot;page27R_mcid13&quot; style=&quot;padding: 0px; margin: 0px; color: transparent; position: absolute; white-space: pre; cursor: text; transform-origin: 0% 0%; top: 0px; height: 0px; font-family: Arial; font-size: 16px; font-style: normal; font-variant-ligatures: normal; font-variant-caps: normal; font-weight: 400; letter-spacing: normal; orphans: 2; text-align: start; text-indent: 0px; text-transform: none; widows: 2; word-spacing: 0px; -webkit-text-stroke-width: 0px; background-color: rgb(255, 255, 255); text-decoration-thickness: initial; text-decoration-style: initial; text-decoration-color: initial;&quot;&gt;&lt;/span&gt;&lt;span class=&quot;markedContent&quot; id=&quot;page27R_mcid14&quot; style=&quot;padding: 0px; margin: 0px; color: transparent; position: absolute; white-space: pre; cursor: text; transform-origin: 0% 0%; top: 0px; height: 0px; font-family: Arial; font-size: 16px; font-style: normal; font-variant-ligatures: normal; font-variant-caps: normal; font-weight: 400; letter-spacing: normal; orphans: 2; text-align: start; text-indent: 0px; text-transform: none; widows: 2; word-spacing: 0px; -webkit-text-stroke-width: 0px; background-color: rgb(255, 255, 255); text-decoration-thickness: initial; text-decoration-style: initial; text-decoration-color: initial;&quot;&gt;&lt;span role=&quot;presentation&quot; dir=&quot;ltr&quot; style=&quot;padding: 0px; margin: 0px; color: transparent; position: absolute; white-space: pre; cursor: text; transform-origin: 0% 0%; left: 564.753px; top: 190.005px; font-size: 23.4px; font-family: sans-serif;&quot;&gt; &lt;/span&gt;&lt;span role=&quot;presentation&quot; dir=&quot;ltr&quot; style=&quot;padding: 0px; margin: 0px; color: transparent; position: absolute; white-space: pre; cursor: text; transform-origin: 0% 0%; left: 572.917px; top: 190.005px; font-size: 23.4px; font-family: sans-serif; transform: scaleX(0.932461);&quot;&gt;may&lt;/span&gt;&lt;/span&gt;&lt;span class=&quot;markedContent&quot; id=&quot;page27R_mcid15&quot; style=&quot;padding: 0px; margin: 0px; color: transparent; position: absolute; white-space: pre; cursor: text; transform-origin: 0% 0%; top: 0px; height: 0px; font-family: Arial; font-size: 16px; font-style: normal; font-variant-ligatures: normal; font-variant-caps: normal; font-weight: 400; letter-spacing: normal; orphans: 2; text-align: start; text-indent: 0px; text-transform: none; widows: 2; word-spacing: 0px; -webkit-text-stroke-width: 0px; background-color: rgb(255, 255, 255); text-decoration-thickness: initial; text-decoration-style: initial; text-decoration-color: initial;&quot;&gt;&lt;/span&gt;&lt;span class=&quot;markedContent&quot; id=&quot;page27R_mcid16&quot; style=&quot;padding: 0px; margin: 0px; color: transparent; position: absolute; white-space: pre; cursor: text; transform-origin: 0% 0%; top: 0px; height: 0px; font-family: Arial; font-size: 16px; font-style: normal; font-variant-ligatures: normal; font-variant-caps: normal; font-weight: 400; letter-spacing: normal; orphans: 2; text-align: start; text-indent: 0px; text-transform: none; widows: 2; word-spacing: 0px; -webkit-text-stroke-width: 0px; background-color: rgb(255, 255, 255); text-decoration-thickness: initial; text-decoration-style: initial; text-decoration-color: initial;&quot;&gt;&lt;span role=&quot;presentation&quot; dir=&quot;ltr&quot; style=&quot;padding: 0px; margin: 0px; color: transparent; position: absolute; white-space: pre; cursor: text; transform-origin: 0% 0%; left: 614.592px; top: 190.005px; font-size: 23.4px; font-family: sans-serif;&quot;&gt; &lt;/span&gt;&lt;span role=&quot;presentation&quot; dir=&quot;ltr&quot; style=&quot;padding: 0px; margin: 0px; color: transparent; position: absolute; white-space: pre; cursor: text; transform-origin: 0% 0%; left: 622.317px; top: 190.005px; font-size: 23.4px; font-family: sans-serif; transform: scaleX(0.875195);&quot;&gt;teach&lt;/span&gt;&lt;/span&gt;&lt;span class=&quot;markedContent&quot; id=&quot;page27R_mcid17&quot; style=&quot;padding: 0px; margin: 0px; color: transparent; position: absolute; white-space: pre; cursor: text; transform-origin: 0% 0%; top: 0px; height: 0px; font-family: Arial; font-size: 16px; font-style: normal; font-variant-ligatures: normal; font-variant-caps: normal; font-weight: 400; letter-spacing: normal; orphans: 2; text-align: start; text-indent: 0px; text-transform: none; widows: 2; word-spacing: 0px; -webkit-text-stroke-width: 0px; background-color: rgb(255, 255, 255); text-decoration-thickness: initial; text-decoration-style: initial; text-decoration-color: initial;&quot;&gt;&lt;/span&gt;&lt;span class=&quot;markedContent&quot; id=&quot;page27R_mcid18&quot; style=&quot;padding: 0px; margin: 0px; color: transparent; position: absolute; white-space: pre; cursor: text; transform-origin: 0% 0%; top: 0px; height: 0px; font-family: Arial; font-size: 16px; font-style: normal; font-variant-ligatures: normal; font-variant-caps: normal; font-weight: 400; letter-spacing: normal; orphans: 2; text-align: start; text-indent: 0px; text-transform: none; widows: 2; word-spacing: 0px; -webkit-text-stroke-width: 0px; background-color: rgb(255, 255, 255); text-decoration-thickness: initial; text-decoration-style: initial; text-decoration-color: initial;&quot;&gt;&lt;span role=&quot;presentation&quot; dir=&quot;ltr&quot; style=&quot;padding: 0px; margin: 0px; color: transparent; position: absolute; white-space: pre; cursor: text; transform-origin: 0% 0%; left: 674.99px; top: 190.005px; font-size: 23.4px; font-family: sans-serif;&quot;&gt; &lt;/span&gt;&lt;span role=&quot;presentation&quot; dir=&quot;ltr&quot; style=&quot;padding: 0px; margin: 0px; color: transparent; position: absolute; white-space: pre; cursor: text; transform-origin: 0% 0%; left: 682.717px; top: 190.005px; font-size: 23.4px; font-family: sans-serif; transform: scaleX(0.909573);&quot;&gt;more than one course&lt;/span&gt;&lt;/span&gt;&lt;span class=&quot;markedContent&quot; id=&quot;page27R_mcid19&quot; style=&quot;padding: 0px; margin: 0px; color: transparent; position: absolute; white-space: pre; cursor: text; transform-origin: 0% 0%; top: 0px; height: 0px; font-family: Arial; font-size: 16px; font-style: normal; font-variant-ligatures: normal; font-variant-caps: normal; font-weight: 400; letter-spacing: normal; orphans: 2; text-align: start; text-indent: 0px; text-transform: none; widows: 2; word-spacing: 0px; -webkit-text-stroke-width: 0px; background-color: rgb(255, 255, 255); text-decoration-thickness: initial; text-decoration-style: initial; text-decoration-color: initial;&quot;&gt;&lt;br role=&quot;presentation&quot; style=&quot;padding: 0px; margin: 0px; color: transparent; position: absolute; white-space: pre; cursor: text; transform-origin: 0% 0%;&quot;&gt;&lt;span role=&quot;presentation&quot; dir=&quot;ltr&quot; style=&quot;padding: 0px; margin: 0px; color: transparent; position: absolute; white-space: pre; cursor: text; transform-origin: 0% 0%; left: 180.033px; top: 222.605px; font-size: 23.4px; font-family: sans-serif; transform: scaleX(0.851937);&quot;&gt;sections of a course, but in some semesters a faculty member may not teach&lt;/span&gt;&lt;/span&gt;&lt;span class=&quot;markedContent&quot; id=&quot;page27R_mcid20&quot; style=&quot;padding: 0px; margin: 0px; color: transparent; position: absolute; white-space: pre; cursor: text; transform-origin: 0% 0%; top: 0px; height: 0px; font-family: Arial; font-size: 16px; font-style: normal; font-variant-ligatures: normal; font-variant-caps: normal; font-weight: 400; letter-spacing: normal; orphans: 2; text-align: start; text-indent: 0px; text-transform: none; widows: 2; word-spacing: 0px; -webkit-text-stroke-width: 0px; background-color: rgb(255, 255, 255); text-decoration-thickness: initial; text-decoration-style: initial; text-decoration-color: initial;&quot;&gt;&lt;br role=&quot;presentation&quot; style=&quot;padding: 0px; margin: 0px; color: transparent; position: absolute; white-space: pre; cursor: text; transform-origin: 0% 0%;&quot;&gt;&lt;span role=&quot;presentation&quot; dir=&quot;ltr&quot; style=&quot;padding: 0px; margin: 0px; color: transparent; position: absolute; white-space: pre; cursor: text; transform-origin: 0% 0%; left: 180.033px; top: 255.405px; font-size: 23.4px; font-family: sans-serif; transform: scaleX(0.869691);&quot;&gt;any. Each course section must have at least one faculty number teaching it,&lt;/span&gt;&lt;/span&gt;&lt;span class=&quot;markedContent&quot; id=&quot;page27R_mcid21&quot; style=&quot;padding: 0px; margin: 0px; color: transparent; position: absolute; white-space: pre; cursor: text; transform-origin: 0% 0%; top: 0px; height: 0px; font-family: Arial; font-size: 16px; font-style: normal; font-variant-ligatures: normal; font-variant-caps: normal; font-weight: 400; letter-spacing: normal; orphans: 2; text-align: start; text-indent: 0px; text-transform: none; widows: 2; word-spacing: 0px; -webkit-text-stroke-width: 0px; background-color: rgb(255, 255, 255); text-decoration-thickness: initial; text-decoration-style: initial; text-decoration-color: initial;&quot;&gt;&lt;br role=&quot;presentation&quot; style=&quot;padding: 0px; margin: 0px; color: transparent; position: absolute; white-space: pre; cursor: text; transform-origin: 0% 0%;&quot;&gt;&lt;span role=&quot;presentation&quot; dir=&quot;ltr&quot; style=&quot;padding: 0px; margin: 0px; color: transparent; position: absolute; white-space: pre; cursor: text; transform-origin: 0% 0%; left: 180.033px; top: 288.205px; font-size: 23.4px; font-family: sans-serif; transform: scaleX(0.917389);&quot;&gt;but&lt;/span&gt;&lt;span role=&quot;presentation&quot; dir=&quot;ltr&quot; style=&quot;padding: 0px; margin: 0px; color: transparent; position: absolute; white-space: pre; cursor: text; transform-origin: 0% 0%; left: 212.255px; top: 288.205px; font-size: 23.4px; font-family: sans-serif;&quot;&gt; &lt;/span&gt;&lt;span role=&quot;presentation&quot; dir=&quot;ltr&quot; style=&quot;padding: 0px; margin: 0px; color: transparent; position: absolute; white-space: pre; cursor: text; transform-origin: 0% 0%; left: 230.788px; top: 288.205px; font-size: 23.4px; font-family: sans-serif; transform: scaleX(0.887409);&quot;&gt;sometimes&lt;/span&gt;&lt;span role=&quot;presentation&quot; dir=&quot;ltr&quot; style=&quot;padding: 0px; margin: 0px; color: transparent; position: absolute; white-space: pre; cursor: text; transform-origin: 0% 0%; left: 335.175px; top: 288.205px; font-size: 23.4px; font-family: sans-serif;&quot;&gt; &lt;/span&gt;&lt;span role=&quot;presentation&quot; dir=&quot;ltr&quot; style=&quot;padding: 0px; margin: 0px; color: transparent; position: absolute; white-space: pre; cursor: text; transform-origin: 0% 0%; left: 353.755px; top: 288.205px; font-size: 23.4px; font-family: sans-serif; transform: scaleX(0.925764);&quot;&gt;multiple&lt;/span&gt;&lt;span role=&quot;presentation&quot; dir=&quot;ltr&quot; style=&quot;padding: 0px; margin: 0px; color: transparent; position: absolute; white-space: pre; cursor: text; transform-origin: 0% 0%; left: 432.543px; top: 288.205px; font-size: 23.4px; font-family: sans-serif;&quot;&gt; &lt;/span&gt;&lt;span role=&quot;presentation&quot; dir=&quot;ltr&quot; style=&quot;padding: 0px; margin: 0px; color: transparent; position: absolute; white-space: pre; cursor: text; transform-origin: 0% 0%; left: 451.076px; top: 288.205px; font-size: 23.4px; font-family: sans-serif; transform: scaleX(0.878081);&quot;&gt;faculty&lt;/span&gt;&lt;span role=&quot;presentation&quot; dir=&quot;ltr&quot; style=&quot;padding: 0px; margin: 0px; color: transparent; position: absolute; white-space: pre; cursor: text; transform-origin: 0% 0%; left: 515.285px; top: 288.205px; font-size: 23.4px; font-family: sans-serif;&quot;&gt; &lt;/span&gt;&lt;span role=&quot;presentation&quot; dir=&quot;ltr&quot; style=&quot;padding: 0px; margin: 0px; color: transparent; position: absolute; white-space: pre; cursor: text; transform-origin: 0% 0%; left: 533.841px; top: 288.205px; font-size: 23.4px; font-family: sans-serif; transform: scaleX(0.900842);&quot;&gt;members&lt;/span&gt;&lt;span role=&quot;presentation&quot; dir=&quot;ltr&quot; style=&quot;padding: 0px; margin: 0px; color: transparent; position: absolute; white-space: pre; cursor: text; transform-origin: 0% 0%; left: 623.978px; top: 288.205px; font-size: 23.4px; font-family: sans-serif;&quot;&gt; &lt;/span&gt;&lt;span role=&quot;presentation&quot; dir=&quot;ltr&quot; style=&quot;padding: 0px; margin: 0px; color: transparent; position: absolute; white-space: pre; cursor: text; transform-origin: 0% 0%; left: 642.581px; top: 288.205px; font-size: 23.4px; font-family: sans-serif; transform: scaleX(0.875195);&quot;&gt;teach&lt;/span&gt;&lt;/span&gt;&lt;span class=&quot;markedContent&quot; id=&quot;page27R_mcid22&quot; style=&quot;padding: 0px; margin: 0px; color: transparent; position: absolute; white-space: pre; cursor: text; transform-origin: 0% 0%; top: 0px; height: 0px; font-family: Arial; font-size: 16px; font-style: normal; font-variant-ligatures: normal; font-variant-caps: normal; font-weight: 400; letter-spacing: normal; orphans: 2; text-align: start; text-indent: 0px; text-transform: none; widows: 2; word-spacing: 0px; -webkit-text-stroke-width: 0px; background-color: rgb(255, 255, 255); text-decoration-thickness: initial; text-decoration-style: initial; text-decoration-color: initial;&quot;&gt;&lt;span role=&quot;presentation&quot; dir=&quot;ltr&quot; style=&quot;padding: 0px; margin: 0px; color: transparent; position: absolute; white-space: pre; cursor: text; transform-origin: 0% 0%; left: 695.255px; top: 288.205px; font-size: 23.4px; font-family: sans-serif;&quot;&gt; &lt;/span&gt;&lt;span role=&quot;presentation&quot; dir=&quot;ltr&quot; style=&quot;padding: 0px; margin: 0px; color: transparent; position: absolute; white-space: pre; cursor: text; transform-origin: 0% 0%; left: 714.117px; top: 288.205px; font-size: 23.4px; font-family: sans-serif;&quot;&gt;a&lt;/span&gt;&lt;span role=&quot;presentation&quot; dir=&quot;ltr&quot; style=&quot;padding: 0px; margin: 0px; color: transparent; position: absolute; white-space: pre; cursor: text; transform-origin: 0% 0%; left: 725.325px; top: 288.205px; font-size: 23.4px; font-family: sans-serif;&quot;&gt; &lt;/span&gt;&lt;span role=&quot;presentation&quot; dir=&quot;ltr&quot; style=&quot;padding: 0px; margin: 0px; color: transparent; position: absolute; white-space: pre; cursor: text; transform-origin: 0% 0%; left: 744.092px; top: 288.205px; font-size: 23.4px; font-family: sans-serif; transform: scaleX(0.868827);&quot;&gt;course&lt;/span&gt;&lt;span role=&quot;presentation&quot; dir=&quot;ltr&quot; style=&quot;padding: 0px; margin: 0px; color: transparent; position: absolute; white-space: pre; cursor: text; transform-origin: 0% 0%; left: 807.483px; top: 288.205px; font-size: 23.4px; font-family: sans-serif;&quot;&gt; &lt;/span&gt;&lt;span role=&quot;presentation&quot; dir=&quot;ltr&quot; style=&quot;padding: 0px; margin: 0px; color: transparent; position: absolute; white-space: pre; cursor: text; transform-origin: 0% 0%; left: 826.062px; top: 288.205px; font-size: 23.4px; font-family: sans-serif; transform: scaleX(0.86976);&quot;&gt;section&lt;/span&gt;&lt;/span&gt;&lt;span class=&quot;markedContent&quot; id=&quot;page27R_mcid23&quot; style=&quot;padding: 0px; margin: 0px; color: transparent; position: absolute; white-space: pre; cursor: text; transform-origin: 0% 0%; top: 0px; height: 0px; font-family: Arial; font-size: 16px; font-style: normal; font-variant-ligatures: normal; font-variant-caps: normal; font-weight: 400; letter-spacing: normal; orphans: 2; text-align: start; text-indent: 0px; text-transform: none; widows: 2; word-spacing: 0px; -webkit-text-stroke-width: 0px; background-color: rgb(255, 255, 255); text-decoration-thickness: initial; text-decoration-style: initial; text-decoration-color: initial;&quot;&gt;&lt;span role=&quot;presentation&quot; dir=&quot;ltr&quot; style=&quot;padding: 0px; margin: 0px; color: transparent; position: absolute; white-space: pre; cursor: text; transform-origin: 0% 0%; left: 894.367px; top: 288.205px; font-size: 23.4px; font-family: sans-serif;&quot;&gt;.&lt;/span&gt;&lt;/span&gt;&lt;span class=&quot;markedContent&quot; id=&quot;page27R_mcid24&quot; style=&quot;padding: 0px; margin: 0px; color: transparent; position: absolute; white-space: pre; cursor: text; transform-origin: 0% 0%; top: 0px; height: 0px; font-family: Arial; font-size: 16px; font-style: normal; font-variant-ligatures: normal; font-variant-caps: normal; font-weight: 400; letter-spacing: normal; orphans: 2; text-align: start; text-indent: 0px; text-transform: none; widows: 2; word-spacing: 0px; -webkit-text-stroke-width: 0px; background-color: rgb(255, 255, 255); text-decoration-thickness: initial; text-decoration-style: initial; text-decoration-color: initial;&quot;&gt;&lt;br role=&quot;presentation&quot; style=&quot;padding: 0px; margin: 0px; color: transparent; position: absolute; white-space: pre; cursor: text; transform-origin: 0% 0%;&quot;&gt;&lt;span role=&quot;presentation&quot; dir=&quot;ltr&quot; style=&quot;padding: 0px; margin: 0px; color: transparent; position: absolute; white-space: pre; cursor: text; transform-origin: 0% 0%; left: 180.033px; top: 321.005px; font-size: 23.4px; font-family: sans-serif; transform: scaleX(0.911572);&quot;&gt;Furthermore, to ma&lt;/span&gt;&lt;/span&gt;&lt;span class=&quot;markedContent&quot; id=&quot;page27R_mcid25&quot; style=&quot;padding: 0px; margin: 0px; color: transparent; position: absolute; white-space: pre; cursor: text; transform-origin: 0% 0%; top: 0px; height: 0px; font-family: Arial; font-size: 16px; font-style: normal; font-variant-ligatures: normal; font-variant-caps: normal; font-weight: 400; letter-spacing: normal; orphans: 2; text-align: start; text-indent: 0px; text-transform: none; widows: 2; word-spacing: 0px; -webkit-text-stroke-width: 0px; background-color: rgb(255, 255, 255); text-decoration-thickness: initial; text-decoration-style: initial; text-decoration-color: initial;&quot;&gt;&lt;span role=&quot;presentation&quot; dir=&quot;ltr&quot; style=&quot;padding: 0px; margin: 0px; color: transparent; position: absolute; white-space: pre; cursor: text; transform-origin: 0% 0%; left: 371.683px; top: 321.005px; font-size: 23.4px; font-family: sans-serif; transform: scaleX(0.885043);&quot;&gt;ke sure that all course sections are similar, one faculty&lt;/span&gt;&lt;/span&gt;&lt;span class=&quot;markedContent&quot; id=&quot;page27R_mcid26&quot; style=&quot;padding: 0px; margin: 0px; color: transparent; position: absolute; white-space: pre; cursor: text; transform-origin: 0% 0%; top: 0px; height: 0px; font-family: Arial; font-size: 16px; font-style: normal; font-variant-ligatures: normal; font-variant-caps: normal; font-weight: 400; letter-spacing: normal; orphans: 2; text-align: start; text-indent: 0px; text-transform: none; widows: 2; word-spacing: 0px; -webkit-text-stroke-width: 0px; background-color: rgb(255, 255, 255); text-decoration-thickness: initial; text-decoration-style: initial; text-decoration-color: initial;&quot;&gt;&lt;br role=&quot;presentation&quot; style=&quot;padding: 0px; margin: 0px; color: transparent; position: absolute; white-space: pre; cursor: text; transform-origin: 0% 0%;&quot;&gt;&lt;span role=&quot;presentation&quot; dir=&quot;ltr&quot; style=&quot;padding: 0px; margin: 0px; color: transparent; position: absolute; white-space: pre; cursor: text; transform-origin: 0% 0%; left: 180.033px; top: 353.605px; font-size: 23.4px; font-family: sans-serif; transform: scaleX(0.874759);&quot;&gt;member is assigned as course coordinator to oversee the course, and each&lt;/span&gt;&lt;/span&gt;&lt;span class=&quot;markedContent&quot; id=&quot;page27R_mcid27&quot; style=&quot;padding: 0px; margin: 0px; color: transparent; position: absolute; white-space: pre; cursor: text; transform-origin: 0% 0%; top: 0px; height: 0px; font-family: Arial; font-size: 16px; font-style: normal; font-variant-ligatures: normal; font-variant-caps: normal; font-weight: 400; letter-spacing: normal; orphans: 2; text-align: start; text-indent: 0px; text-transform: none; widows: 2; word-spacing: 0px; -webkit-text-stroke-width: 0px; background-color: rgb(255, 255, 255); text-decoration-thickness: initial; text-decoration-style: initial; text-decoration-color: initial;&quot;&gt;&lt;br role=&quot;presentation&quot; style=&quot;padding: 0px; margin: 0px; color: transparent; position: absolute; white-space: pre; cursor: text; transform-origin: 0% 0%;&quot;&gt;&lt;span role=&quot;presentation&quot; dir=&quot;ltr&quot; style=&quot;padding: 0px; margin: 0px; color: transparent; position: absolute; white-space: pre; cursor: text; transform-origin: 0% 0%; left: 180.033px; top: 386.405px; font-size: 23.4px; font-family: sans-serif; transform: scaleX(0.886845);&quot;&gt;faculty member&lt;/span&gt;&lt;/span&gt;&lt;span class=&quot;markedContent&quot; id=&quot;page27R_mcid28&quot; style=&quot;padding: 0px; margin: 0px; color: transparent; position: absolute; white-space: pre; cursor: text; transform-origin: 0% 0%; top: 0px; height: 0px; font-family: Arial; font-size: 16px; font-style: normal; font-variant-ligatures: normal; font-variant-caps: normal; font-weight: 400; letter-spacing: normal; orphans: 2; text-align: start; text-indent: 0px; text-transform: none; widows: 2; word-spacing: 0px; -webkit-text-stroke-width: 0px; background-color: rgb(255, 255, 255); text-decoration-thickness: initial; text-decoration-style: initial; text-decoration-color: initial;&quot;&gt;&lt;span role=&quot;presentation&quot; dir=&quot;ltr&quot; style=&quot;padding: 0px; margin: 0px; color: transparent; position: absolute; white-space: pre; cursor: text; transform-origin: 0% 0%; left: 330.051px; top: 386.405px; font-size: 23.4px; font-family: sans-serif;&quot;&gt; &lt;/span&gt;&lt;span role=&quot;presentation&quot; dir=&quot;ltr&quot; style=&quot;padding: 0px; margin: 0px; color: transparent; position: absolute; white-space: pre; cursor: text; transform-origin: 0% 0%; left: 335.283px; top: 386.405px; font-size: 23.4px; font-family: sans-serif; transform: scaleX(0.904189);&quot;&gt;may&lt;/span&gt;&lt;/span&gt;&lt;span class=&quot;markedContent&quot; id=&quot;page27R_mcid29&quot; style=&quot;padding: 0px; margin: 0px; color: transparent; position: absolute; white-space: pre; cursor: text; transform-origin: 0% 0%; top: 0px; height: 0px; font-family: Arial; font-size: 16px; font-style: normal; font-variant-ligatures: normal; font-variant-caps: normal; font-weight: 400; letter-spacing: normal; orphans: 2; text-align: start; text-indent: 0px; text-transform: none; widows: 2; word-spacing: 0px; -webkit-text-stroke-width: 0px; background-color: rgb(255, 255, 255); text-decoration-thickness: initial; text-decoration-style: initial; text-decoration-color: initial;&quot;&gt;&lt;/span&gt;&lt;span class=&quot;markedContent&quot; id=&quot;page27R_mcid30&quot; style=&quot;padding: 0px; margin: 0px; color: transparent; position: absolute; white-space: pre; cursor: text; transform-origin: 0% 0%; top: 0px; height: 0px; font-family: Arial; font-size: 16px; font-style: normal; font-variant-ligatures: normal; font-variant-caps: normal; font-weight: 400; letter-spacing: normal; orphans: 2; text-align: start; text-indent: 0px; text-transform: none; widows: 2; word-spacing: 0px; -webkit-text-stroke-width: 0px; background-color: rgb(255, 255, 255); text-decoration-thickness: initial; text-decoration-style: initial; text-decoration-color: initial;&quot;&gt;&lt;span role=&quot;presentation&quot; dir=&quot;ltr&quot; style=&quot;padding: 0px; margin: 0px; color: transparent; position: absolute; white-space: pre; cursor: text; transform-origin: 0% 0%; left: 375.695px; top: 386.405px; font-size: 23.4px; font-family: sans-serif;&quot;&gt; &lt;/span&gt;&lt;span role=&quot;presentation&quot; dir=&quot;ltr&quot; style=&quot;padding: 0px; margin: 0px; color: transparent; position: absolute; white-space: pre; cursor: text; transform-origin: 0% 0%; left: 380.883px; top: 386.405px; font-size: 23.4px; font-family: sans-serif; transform: scaleX(0.890203);&quot;&gt;coordinat&lt;/span&gt;&lt;/span&gt;&lt;span class=&quot;markedContent&quot; id=&quot;page27R_mcid31&quot; style=&quot;padding: 0px; margin: 0px; color: transparent; position: absolute; white-space: pre; cursor: text; transform-origin: 0% 0%; top: 0px; height: 0px; font-family: Arial; font-size: 16px; font-style: normal; font-variant-ligatures: normal; font-variant-caps: normal; font-weight: 400; letter-spacing: normal; orphans: 2; text-align: start; text-indent: 0px; text-transform: none; widows: 2; word-spacing: 0px; -webkit-text-stroke-width: 0px; background-color: rgb(255, 255, 255); text-decoration-thickness: initial; text-decoration-style: initial; text-decoration-color: initial;&quot;&gt;&lt;span role=&quot;presentation&quot; dir=&quot;ltr&quot; style=&quot;padding: 0px; margin: 0px; color: transparent; position: absolute; white-space: pre; cursor: text; transform-origin: 0% 0%; left: 472.483px; top: 386.405px; font-size: 23.4px; font-family: sans-serif;&quot;&gt;e&lt;/span&gt;&lt;/span&gt;&lt;span class=&quot;markedContent&quot; id=&quot;page27R_mcid32&quot; style=&quot;padding: 0px; margin: 0px; color: transparent; position: absolute; white-space: pre; cursor: text; transform-origin: 0% 0%; top: 0px; height: 0px; font-family: Arial; font-size: 16px; font-style: normal; font-variant-ligatures: normal; font-variant-caps: normal; font-weight: 400; letter-spacing: normal; orphans: 2; text-align: start; text-indent: 0px; text-transform: none; widows: 2; word-spacing: 0px; -webkit-text-stroke-width: 0px; background-color: rgb(255, 255, 255); text-decoration-thickness: initial; text-decoration-style: initial; text-decoration-color: initial;&quot;&gt;&lt;/span&gt;&lt;span class=&quot;markedContent&quot; id=&quot;page27R_mcid33&quot; style=&quot;padding: 0px; margin: 0px; color: transparent; position: absolute; white-space: pre; cursor: text; transform-origin: 0% 0%; top: 0px; height: 0px; font-family: Arial; font-size: 16px; font-style: normal; font-variant-ligatures: normal; font-variant-caps: normal; font-weight: 400; letter-spacing: normal; orphans: 2; text-align: start; text-indent: 0px; text-transform: none; widows: 2; word-spacing: 0px; -webkit-text-stroke-width: 0px; background-color: rgb(255, 255, 255); text-decoration-thickness: initial; text-decoration-style: initial; text-decoration-color: initial;&quot;&gt;&lt;span role=&quot;presentation&quot; dir=&quot;ltr&quot; style=&quot;padding: 0px; margin: 0px; color: transparent; position: absolute; white-space: pre; cursor: text; transform-origin: 0% 0%; left: 484.137px; top: 386.405px; font-size: 23.4px; font-family: sans-serif;&quot;&gt; &lt;/span&gt;&lt;span role=&quot;presentation&quot; dir=&quot;ltr&quot; style=&quot;padding: 0px; margin: 0px; color: transparent; position: absolute; white-space: pre; cursor: text; transform-origin: 0% 0%; left: 489.083px; top: 386.405px; font-size: 23.4px; font-family: sans-serif; transform: scaleX(0.869689);&quot;&gt;many courses. Students may enroll in many&lt;/span&gt;&lt;/span&gt;&lt;span class=&quot;markedContent&quot; id=&quot;page27R_mcid34&quot; style=&quot;padding: 0px; margin: 0px; color: transparent; position: absolute; white-space: pre; cursor: text; transform-origin: 0% 0%; top: 0px; height: 0px; font-family: Arial; font-size: 16px; font-style: normal; font-variant-ligatures: normal; font-variant-caps: normal; font-weight: 400; letter-spacing: normal; orphans: 2; text-align: start; text-indent: 0px; text-transform: none; widows: 2; word-spacing: 0px; -webkit-text-stroke-width: 0px; background-color: rgb(255, 255, 255); text-decoration-thickness: initial; text-decoration-style: initial; text-decoration-color: initial;&quot;&gt;&lt;br role=&quot;presentation&quot; style=&quot;padding: 0px; margin: 0px; color: transparent; position: absolute; white-space: pre; cursor: text; transform-origin: 0% 0%;&quot;&gt;&lt;span role=&quot;presentation&quot; dir=&quot;ltr&quot; style=&quot;padding: 0px; margin: 0px; color: transparent; position: absolute; white-space: pre; cursor: text; transform-origin: 0% 0%; left: 180.033px; top: 419.255px; font-size: 23.4px; font-family: sans-serif; transform: scaleX(0.859817);&quot;&gt;course sections and receive a grade&lt;/span&gt;&lt;/span&gt;&lt;span class=&quot;markedContent&quot; id=&quot;page27R_mcid35&quot; style=&quot;padding: 0px; margin: 0px; color: transparent; position: absolute; white-space: pre; cursor: text; transform-origin: 0% 0%; top: 0px; height: 0px; font-family: Arial; font-size: 16px; font-style: normal; font-variant-ligatures: normal; font-variant-caps: normal; font-weight: 400; letter-spacing: normal; orphans: 2; text-align: start; text-indent: 0px; text-transform: none; widows: 2; word-spacing: 0px; -webkit-text-stroke-width: 0px; background-color: rgb(255, 255, 255); text-decoration-thickness: initial; text-decoration-style: initial; text-decoration-color: initial;&quot;&gt;&lt;span role=&quot;presentation&quot; dir=&quot;ltr&quot; style=&quot;padding: 0px; margin: 0px; color: transparent; position: absolute; white-space: pre; cursor: text; transform-origin: 0% 0%; left: 519.755px; top: 419.255px; font-size: 23.4px; font-family: sans-serif;&quot;&gt; &lt;/span&gt;&lt;span role=&quot;presentation&quot; dir=&quot;ltr&quot; style=&quot;padding: 0px; margin: 0px; color: transparent; position: absolute; white-space: pre; cursor: text; transform-origin: 0% 0%; left: 525.683px; top: 419.255px; font-size: 23.4px; font-family: sans-serif; transform: scaleX(0.889053);&quot;&gt;at the&lt;/span&gt;&lt;/span&gt;&lt;span class=&quot;markedContent&quot; id=&quot;page27R_mcid36&quot; style=&quot;padding: 0px; margin: 0px; color: transparent; position: absolute; white-space: pre; cursor: text; transform-origin: 0% 0%; top: 0px; height: 0px; font-family: Arial; font-size: 16px; font-style: normal; font-variant-ligatures: normal; font-variant-caps: normal; font-weight: 400; letter-spacing: normal; orphans: 2; text-align: start; text-indent: 0px; text-transform: none; widows: 2; word-spacing: 0px; -webkit-text-stroke-width: 0px; background-color: rgb(255, 255, 255); text-decoration-thickness: initial; text-decoration-style: initial; text-decoration-color: initial;&quot;&gt;&lt;/span&gt;&lt;span class=&quot;markedContent&quot; id=&quot;page27R_mcid37&quot; style=&quot;padding: 0px; margin: 0px; color: transparent; position: absolute; white-space: pre; cursor: text; transform-origin: 0% 0%; top: 0px; height: 0px; font-family: Arial; font-size: 16px; font-style: normal; font-variant-ligatures: normal; font-variant-caps: normal; font-weight: 400; letter-spacing: normal; orphans: 2; text-align: start; text-indent: 0px; text-transform: none; widows: 2; word-spacing: 0px; -webkit-text-stroke-width: 0px; background-color: rgb(255, 255, 255); text-decoration-thickness: initial; text-decoration-style: initial; text-decoration-color: initial;&quot;&gt;&lt;span role=&quot;presentation&quot; dir=&quot;ltr&quot; style=&quot;padding: 0px; margin: 0px; color: transparent; position: absolute; white-space: pre; cursor: text; transform-origin: 0% 0%; left: 582.124px; top: 419.255px; font-size: 23.4px; font-family: sans-serif;&quot;&gt; &lt;/span&gt;&lt;span role=&quot;presentation&quot; dir=&quot;ltr&quot; style=&quot;padding: 0px; margin: 0px; color: transparent; position: absolute; white-space: pre; cursor: text; transform-origin: 0% 0%; left: 588.117px; top: 419.255px; font-size: 23.4px; font-family: sans-serif; transform: scaleX(0.881236);&quot;&gt;end of the&lt;/span&gt;&lt;/span&gt;&lt;span class=&quot;markedContent&quot; id=&quot;page27R_mcid38&quot; style=&quot;padding: 0px; margin: 0px; color: transparent; position: absolute; white-space: pre; cursor: text; transform-origin: 0% 0%; top: 0px; height: 0px; font-family: Arial; font-size: 16px; font-style: normal; font-variant-ligatures: normal; font-variant-caps: normal; font-weight: 400; letter-spacing: normal; orphans: 2; text-align: start; text-indent: 0px; text-transform: none; widows: 2; word-spacing: 0px; -webkit-text-stroke-width: 0px; background-color: rgb(255, 255, 255); text-decoration-thickness: initial; text-decoration-style: initial; text-decoration-color: initial;&quot;&gt;&lt;/span&gt;&lt;span class=&quot;markedContent&quot; id=&quot;page27R_mcid39&quot; style=&quot;padding: 0px; margin: 0px; color: transparent; position: absolute; white-space: pre; cursor: text; transform-origin: 0% 0%; top: 0px; height: 0px; font-family: Arial; font-size: 16px; font-style: normal; font-variant-ligatures: normal; font-variant-caps: normal; font-weight: 400; letter-spacing: normal; orphans: 2; text-align: start; text-indent: 0px; text-transform: none; widows: 2; word-spacing: 0px; -webkit-text-stroke-width: 0px; background-color: rgb(255, 255, 255); text-decoration-thickness: initial; text-decoration-style: initial; text-decoration-color: initial;&quot;&gt;&lt;span role=&quot;presentation&quot; dir=&quot;ltr&quot; style=&quot;padding: 0px; margin: 0px; color: transparent; position: absolute; white-space: pre; cursor: text; transform-origin: 0% 0%; left: 686.911px; top: 419.255px; font-size: 23.4px; font-family: sans-serif;&quot;&gt; &lt;/span&gt;&lt;span role=&quot;presentation&quot; dir=&quot;ltr&quot; style=&quot;padding: 0px; margin: 0px; color: transparent; position: absolute; white-space: pre; cursor: text; transform-origin: 0% 0%; left: 692.917px; top: 419.255px; font-size: 23.4px; font-family: sans-serif; transform: scaleX(0.88368);&quot;&gt;term for every course&lt;/span&gt;&lt;/span&gt;&lt;span class=&quot;markedContent&quot; id=&quot;page27R_mcid40&quot; style=&quot;padding: 0px; margin: 0px; color: transparent; position: absolute; white-space: pre; cursor: text; transform-origin: 0% 0%; top: 0px; height: 0px; font-family: Arial; font-size: 16px; font-style: normal; font-variant-ligatures: normal; font-variant-caps: normal; font-weight: 400; letter-spacing: normal; orphans: 2; text-align: start; text-indent: 0px; text-transform: none; widows: 2; word-spacing: 0px; -webkit-text-stroke-width: 0px; background-color: rgb(255, 255, 255); text-decoration-thickness: initial; text-decoration-style: initial; text-decoration-color: initial;&quot;&gt;&lt;br role=&quot;presentation&quot; style=&quot;padding: 0px; margin: 0px; color: transparent; position: absolute; white-space: pre; cursor: text; transform-origin: 0% 0%;&quot;&gt;&lt;span role=&quot;presentation&quot; dir=&quot;ltr&quot; style=&quot;padding: 0px; margin: 0px; color: transparent; position: absolute; white-space: pre; cursor: text; transform-origin: 0% 0%; left: 180.033px; top: 452.255px; font-size: 23.4px; font-family: sans-serif; transform: scaleX(0.888115);&quot;&gt;that they have enrolled in&lt;/span&gt;&lt;/span&gt;&lt;span class=&quot;markedContent&quot; id=&quot;page27R_mcid41&quot; style=&quot;padding: 0px; margin: 0px; color: transparent; position: absolute; white-space: pre; cursor: text; transform-origin: 0% 0%; top: 0px; height: 0px; font-family: Arial; font-size: 16px; font-style: normal; font-variant-ligatures: normal; font-variant-caps: normal; font-weight: 400; letter-spacing: normal; orphans: 2; text-align: start; text-indent: 0px; text-transform: none; widows: 2; word-spacing: 0px; -webkit-text-stroke-width: 0px; background-color: rgb(255, 255, 255); text-decoration-thickness: initial; text-decoration-style: initial; text-decoration-color: initial;&quot;&gt;&lt;span role=&quot;presentation&quot; dir=&quot;ltr&quot; style=&quot;padding: 0px; margin: 0px; color: transparent; position: absolute; white-space: pre; cursor: text; transform-origin: 0% 0%; left: 424.483px; top: 452.255px; font-size: 23.4px; font-family: sans-serif;&quot;&gt;.&lt;/span&gt;&lt;/span&gt;" style="text;whiteSpace=wrap;html=1;" vertex="1" parent="uFHn_YRlUSNiN2GhpHnX-33">
          <mxGeometry x="30" y="180" width="30" height="20" as="geometry" />
        </mxCell>
        <mxCell id="uFHn_YRlUSNiN2GhpHnX-29" style="edgeStyle=orthogonalEdgeStyle;rounded=0;orthogonalLoop=1;jettySize=auto;html=1;entryX=0.5;entryY=1;entryDx=0;entryDy=0;startArrow=ERmany;startFill=0;endArrow=ERmany;endFill=0;" edge="1" parent="uFHn_YRlUSNiN2GhpHnX-33" source="uFHn_YRlUSNiN2GhpHnX-25" target="uFHn_YRlUSNiN2GhpHnX-26">
          <mxGeometry relative="1" as="geometry" />
        </mxCell>
        <mxCell id="uFHn_YRlUSNiN2GhpHnX-25" value="Course sections" style="rounded=0;whiteSpace=wrap;html=1;" vertex="1" parent="uFHn_YRlUSNiN2GhpHnX-33">
          <mxGeometry y="200" width="120" height="60" as="geometry" />
        </mxCell>
        <mxCell id="uFHn_YRlUSNiN2GhpHnX-26" value="Faculty" style="rounded=0;whiteSpace=wrap;html=1;" vertex="1" parent="uFHn_YRlUSNiN2GhpHnX-33">
          <mxGeometry x="190" y="140" width="120" height="60" as="geometry" />
        </mxCell>
        <mxCell id="uFHn_YRlUSNiN2GhpHnX-31" value="Students" style="rounded=0;whiteSpace=wrap;html=1;" vertex="1" parent="uFHn_YRlUSNiN2GhpHnX-33">
          <mxGeometry x="190" y="50" width="120" height="60" as="geometry" />
        </mxCell>
        <mxCell id="uFHn_YRlUSNiN2GhpHnX-27" style="edgeStyle=orthogonalEdgeStyle;rounded=0;orthogonalLoop=1;jettySize=auto;html=1;entryX=0.5;entryY=0;entryDx=0;entryDy=0;startArrow=ERone;startFill=0;endArrow=ERmany;endFill=0;" edge="1" parent="uFHn_YRlUSNiN2GhpHnX-34" source="uFHn_YRlUSNiN2GhpHnX-22" target="uFHn_YRlUSNiN2GhpHnX-24">
          <mxGeometry relative="1" as="geometry" />
        </mxCell>
        <mxCell id="uFHn_YRlUSNiN2GhpHnX-28" style="edgeStyle=orthogonalEdgeStyle;rounded=0;orthogonalLoop=1;jettySize=auto;html=1;entryX=0;entryY=0.5;entryDx=0;entryDy=0;startArrow=ERone;startFill=0;endArrow=ERmany;endFill=0;" edge="1" parent="uFHn_YRlUSNiN2GhpHnX-34" source="uFHn_YRlUSNiN2GhpHnX-24" target="uFHn_YRlUSNiN2GhpHnX-25">
          <mxGeometry relative="1" as="geometry" />
        </mxCell>
        <mxCell id="uFHn_YRlUSNiN2GhpHnX-30" style="edgeStyle=orthogonalEdgeStyle;rounded=0;orthogonalLoop=1;jettySize=auto;html=1;entryX=1;entryY=0.75;entryDx=0;entryDy=0;startArrow=ERmany;startFill=0;endArrow=ERmany;endFill=0;" edge="1" parent="uFHn_YRlUSNiN2GhpHnX-34" source="uFHn_YRlUSNiN2GhpHnX-26" target="uFHn_YRlUSNiN2GhpHnX-24">
          <mxGeometry relative="1" as="geometry" />
        </mxCell>
        <mxCell id="uFHn_YRlUSNiN2GhpHnX-32" style="edgeStyle=orthogonalEdgeStyle;rounded=0;orthogonalLoop=1;jettySize=auto;html=1;entryX=1;entryY=0.368;entryDx=0;entryDy=0;entryPerimeter=0;startArrow=ERmany;startFill=0;endArrow=ERmany;endFill=0;" edge="1" parent="uFHn_YRlUSNiN2GhpHnX-34" source="uFHn_YRlUSNiN2GhpHnX-31" target="uFHn_YRlUSNiN2GhpHnX-24">
          <mxGeometry relative="1" as="geometry" />
        </mxCell>
        <mxCell id="uFHn_YRlUSNiN2GhpHnX-40" style="edgeStyle=orthogonalEdgeStyle;rounded=0;orthogonalLoop=1;jettySize=auto;html=1;entryX=0;entryY=0.25;entryDx=0;entryDy=0;startArrow=ERmany;startFill=0;endArrow=ERmany;endFill=0;" edge="1" parent="1" source="uFHn_YRlUSNiN2GhpHnX-35" target="uFHn_YRlUSNiN2GhpHnX-37">
          <mxGeometry relative="1" as="geometry" />
        </mxCell>
        <mxCell id="uFHn_YRlUSNiN2GhpHnX-35" value="Attorney" style="rounded=0;whiteSpace=wrap;html=1;" vertex="1" parent="1">
          <mxGeometry x="50" y="50" width="120" height="60" as="geometry" />
        </mxCell>
        <mxCell id="uFHn_YRlUSNiN2GhpHnX-41" style="edgeStyle=orthogonalEdgeStyle;rounded=0;orthogonalLoop=1;jettySize=auto;html=1;entryX=1;entryY=0.5;entryDx=0;entryDy=0;startArrow=ERmany;startFill=0;endArrow=ERmany;endFill=0;exitX=0.441;exitY=1.003;exitDx=0;exitDy=0;exitPerimeter=0;" edge="1" parent="1" source="uFHn_YRlUSNiN2GhpHnX-36" target="uFHn_YRlUSNiN2GhpHnX-37">
          <mxGeometry relative="1" as="geometry" />
        </mxCell>
        <mxCell id="uFHn_YRlUSNiN2GhpHnX-36" value="Clients&amp;nbsp;" style="rounded=0;whiteSpace=wrap;html=1;" vertex="1" parent="1">
          <mxGeometry x="340" y="50" width="120" height="60" as="geometry" />
        </mxCell>
        <mxCell id="uFHn_YRlUSNiN2GhpHnX-42" style="edgeStyle=orthogonalEdgeStyle;rounded=0;orthogonalLoop=1;jettySize=auto;html=1;entryX=0.5;entryY=0;entryDx=0;entryDy=0;startArrow=ERmany;startFill=0;endArrow=ERone;endFill=0;" edge="1" parent="1" source="uFHn_YRlUSNiN2GhpHnX-37" target="uFHn_YRlUSNiN2GhpHnX-38">
          <mxGeometry relative="1" as="geometry" />
        </mxCell>
        <mxCell id="uFHn_YRlUSNiN2GhpHnX-44" style="edgeStyle=orthogonalEdgeStyle;rounded=0;orthogonalLoop=1;jettySize=auto;html=1;entryX=0.5;entryY=0;entryDx=0;entryDy=0;startArrow=ERmany;startFill=0;endArrow=ERmany;endFill=0;" edge="1" parent="1" source="uFHn_YRlUSNiN2GhpHnX-37" target="uFHn_YRlUSNiN2GhpHnX-39">
          <mxGeometry relative="1" as="geometry" />
        </mxCell>
        <mxCell id="uFHn_YRlUSNiN2GhpHnX-37" value="Case" style="rounded=0;whiteSpace=wrap;html=1;" vertex="1" parent="1">
          <mxGeometry x="230" y="150" width="120" height="60" as="geometry" />
        </mxCell>
        <mxCell id="uFHn_YRlUSNiN2GhpHnX-43" style="edgeStyle=orthogonalEdgeStyle;rounded=0;orthogonalLoop=1;jettySize=auto;html=1;startArrow=ERone;startFill=0;endArrow=ERmany;endFill=0;entryX=0.985;entryY=0.376;entryDx=0;entryDy=0;entryPerimeter=0;" edge="1" parent="1" source="uFHn_YRlUSNiN2GhpHnX-38" target="uFHn_YRlUSNiN2GhpHnX-39">
          <mxGeometry relative="1" as="geometry" />
        </mxCell>
        <mxCell id="uFHn_YRlUSNiN2GhpHnX-38" value="Court" style="rounded=0;whiteSpace=wrap;html=1;" vertex="1" parent="1">
          <mxGeometry x="250" y="280" width="120" height="60" as="geometry" />
        </mxCell>
        <mxCell id="uFHn_YRlUSNiN2GhpHnX-39" value="Judge" style="rounded=0;whiteSpace=wrap;html=1;" vertex="1" parent="1">
          <mxGeometry x="50" y="280" width="120" height="60" as="geometry" />
        </mxCell>
      </root>
    </mxGraphModel>
  </diagram>
</mxfile>
